# xmcd
#
# Track frame offsets:
#	150
#	16607
#	32362
#	46192
#	62630
#	75695
#	89710
#	106670
#	123020
#	137370
#
# Disc length: 2104 seconds
#
# Revision: 0
# Processed by: cddbd v1.5.1PL2 Copyright (c) Steve Scherf et al.
# Submitted via: audiograbber 1.83.01
#
DISCID=6708360a
DTITLE=Narrow Road - Living By Faith
DYEAR=1900
DGENRE=Country Gospel
TTITLE0=Narrow Road - Sometimes It's Hard To See
TTITLE1=Narrow Road - Leaning On You
TTITLE2=Narrow Road - Neath The Light of Your Love
TTITLE3=Narrow Road - Rescue Me
TTITLE4=Narrow Road - Don't Look Back
TTITLE5=Narrow Road - Living In Faith
TTITLE6=Narrow Road - The Old Rugged Cross
TTITLE7=Narrow Road - Show Me the Way
TTITLE8=Narrow Road - He is There
TTITLE9=Narrow Road - I Know How Holds Tomorrow
EXTD=
EXTT0=
EXTT1=
EXTT2=
EXTT3=
EXTT4=
EXTT5=
EXTT6=
EXTT7=
EXTT8=
EXTT9=
PLAYORDER=
